PathFileType	4	(X/Y/Z)	C:\Users\WrightLab\Desktop\Jo\P1.2Trial36.trc
DataRate	CameraRate	NumFrames	NumMarkers	Units	OrigDataRate	OrigDataStartFrame	OrigNumFrames
100.00	100.00	      12	19	mm	100.00	772	      1029
Frame#	Time	Headset_Front			Headset_Back			Headset_Left			Headset_Right			Left_Shoulder			Right_Shoulder			Sternum			C7			Left Elbow			Right Elbow			Left Wrist			Right Wrist			Left ASIS			Right ASIS			S2			Left Knee			Right Knee			Left Ankle			Right Ankle			
		X1	Y1	Z1	X2	Y2	Z2	X3	Y3	Z3	X4	Y4	Z4	X5	Y5	Z5	X6	Y6	Z6	X7	Y7	Z7	X8	Y8	Z8	X9	Y9	Z9	X10	Y10	Z10	X11	Y11	Z11	X12	Y12	Z12	X13	Y13	Z13	X14	Y14	Z14	X15	Y15	Z15	X16	Y16	Z16	X17	Y17	Z17	X18	Y18	Z18	X19	Y19	Z19	

772	7.710	-459.84338	1264.79590	-373.87979	-519.68427	1484.22241	-166.81757	-604.38812	1387.00671	-280.82516	-380.04053	1334.73792	-266.98682	-749.18341	1210.12646	-182.95041	-333.90942	1193.54712	-100.48630	-526.85803	1115.54492	-239.69331	-556.91473	1293.83850	-42.24808	-835.30524	931.04907	-135.11871	-271.51474	953.98444	-7.58126	-897.29358	749.67401	-247.73531	-201.45612	695.46576	-70.27278	-681.35901	816.66235	-199.75195	-404.41504	792.19592	-138.02612	-618.69012	906.87744	87.01622	-741.55048	426.40106	-205.48132	-367.83514	390.61581	-25.51771	-831.09680	95.48759	-186.28629	-323.45667	94.93908	161.09036	
773	7.720	-467.20648	1267.47717	-380.35043	-527.79456	1484.15723	-170.67577	-611.93353	1387.98132	-286.11432	-388.41928	1336.57312	-272.51886	-756.57300	1209.10315	-187.48236	-340.79623	1193.94727	-102.85996	-535.08936	1115.99182	-247.05618	-563.35748	1293.17615	-48.56608	-841.18658	929.81885	-136.87173	-279.70294	954.53754	-12.57964	-908.57990	747.92450	-243.18317	-208.84245	695.60608	-75.76088	-687.55902	815.50238	-206.98796	-411.38504	792.30450	-145.06958	-625.66699	906.80981	79.88624	-747.65442	426.99948	-211.86975	-372.80527	390.74957	-31.80751	-831.76031	93.12081	-189.56650	-323.95108	98.09247	157.58504	
774	7.730	-473.96854	1269.43311	-385.93436	-535.67511	1484.61462	-175.69019	-619.60748	1389.38550	-291.81274	-395.11588	1338.16760	-277.74075	-764.24432	1208.80713	-192.14571	-347.58395	1195.06580	-111.22391	-543.10193	1114.95740	-250.96349	-569.62762	1293.38611	-54.12135	-847.42566	929.38116	-139.47945	-288.87720	954.44928	-19.69273	-919.77771	746.97522	-239.01495	-216.76309	695.39819	-80.95944	-694.64502	816.12482	-214.11736	-418.60385	793.12708	-152.38863	-631.79059	906.30072	73.29218	-753.81677	428.81891	-219.37585	-378.37589	391.37048	-39.26704	-833.02551	91.88898	-192.92159	-323.09137	101.28250	156.41444	
775	7.740	-481.63998	1271.87927	-392.95779	-544.05188	1485.31641	-180.49200	-627.18610	1390.48108	-296.96201	-402.23199	1339.29150	-283.90964	-771.17096	1208.98535	-197.31760	-354.02185	1195.24304	-120.24285	-550.49823	1115.85181	-258.06384	-577.01898	1293.51794	-61.16513	-853.31781	929.32642	-142.24063	-296.59433	955.36517	-24.86104	-930.59827	747.41382	-235.21465	-226.12468	695.38672	-87.13419	-701.71960	816.39819	-220.46092	-425.89441	794.33356	-160.79715	-637.39886	906.37390	66.86417	-759.67517	430.06992	-226.74129	-384.04156	390.49365	-44.83445	-834.43921	91.51890	-196.82590	-320.95688	103.62670	152.97440	
776	7.750	-488.38959	1274.41675	-399.87503	-551.59448	1485.91028	-185.16136	-636.16968	1392.32922	-302.65009	-409.95117	1341.27258	-289.07083	-778.06519	1209.00110	-201.37965				-558.23492	1116.67773	-264.21210	-582.14636	1293.26050	-66.65501	-858.94427	929.86621	-144.38374	-304.70871	955.77936	-29.95672	-941.45367	748.16425	-231.51263	-233.37973	696.49023	-91.37700	-708.68732	817.54871	-227.85541	-433.28702	794.59955	-166.92662	-643.37384	907.12885	59.14359	-765.13977	431.08929	-233.15189	-390.10501	390.53271	-51.35841	-835.92505	90.58652	-198.62367	-323.54407	108.41775	151.73746	
777	7.760	-495.80197	1277.05359	-406.31625	-559.10577	1486.87134	-190.09315	-643.20819	1393.54358	-308.43869	-417.42462	1343.62659	-296.05228	-785.01251	1209.82568	-205.51239	-365.83261	1197.16638	-131.81145	-565.46405	1118.24683	-270.87784	-587.59827	1294.11255	-72.96342	-865.07220	930.10901	-147.33418	-313.52368	956.95331	-36.21212	-952.01782	749.37555	-228.02069	-240.67461	697.36316	-95.59125	-715.39984	818.71674	-232.39172	-440.71658	795.97937	-174.86212	-649.06610	907.20746	52.87335	-770.60059	432.95273	-239.42642	-395.68320	392.19916	-59.26106	-837.29065	90.19321	-200.62433	-324.83127	113.79151	145.90550	
778	7.770	-502.97153	1279.41895	-412.46381	-566.70636	1487.83862	-194.79788	-650.96478	1394.84314	-313.86569	-425.83990	1345.35083	-301.96671	-791.42291	1210.62817	-210.21794	-371.43237	1197.67822	-141.58226	-572.62445	1119.54590	-277.50333	-593.31543	1294.45508	-78.24115	-871.44220	932.44543	-150.70018	-320.15115	958.17529	-42.32533	-962.73987	752.37891	-224.73582	-249.81439	697.39374	-100.59309	-723.42871	820.73352	-240.34808	-448.39594	797.79218	-183.50934	-653.69800	907.81689	46.97790	-775.63599	433.84445	-244.61050	-402.14478	394.09464	-67.90133	-845.52173	84.41759	-205.56511	-326.11816	119.02723	138.55746	
779	7.780	-510.24042	1281.99158	-419.05954	-574.44519	1489.17139	-200.04547	-657.02618	1395.27112	-318.87674	-432.27490	1348.15039	-308.48486	-797.98334	1212.05969	-214.31631	-377.88733	1199.81287	-152.06822	-579.53528	1121.15601	-284.44363	-598.46631	1295.67249	-84.14861	-877.56274	934.37262	-153.65033	-327.12912	959.98083	-48.97565	-971.85223	754.67139	-222.95842	-258.21985	698.45239	-105.20111	-730.05084	821.68463	-247.02924	-455.97723	799.38470	-190.73349	-659.04480	909.43555	40.29346	-780.74951	434.37933	-249.63092	-407.29846	396.74579	-76.34444	-848.23993	83.61030	-204.61525	-327.00662	123.46028	133.50697	
780	7.790	-517.27374	1285.14136	-425.10461	-581.33325	1489.94470	-204.52982	-664.16461	1396.89246	-324.44363	-438.67325	1351.34814	-314.54556	-804.71869	1213.51587	-218.49486	-384.04797	1202.67749	-162.26633	-586.38672	1123.24585	-290.40787	-603.61469	1296.46521	-89.60845	-883.52454	935.66211	-155.22636	-335.08154	960.85260	-55.58642	-981.40796	757.96228	-220.72905	-265.59631	699.37756	-109.49033	-736.97241	823.64691	-253.89388	-463.49088	800.58887	-196.83246	-663.21753	910.12415	35.61984	-785.40491	434.14404	-253.76097	-412.34470	397.84689	-84.00163	-842.22949	88.94539	-206.05046	-329.08875	127.73347	124.68815	
781	7.800	-523.88190	1287.25623	-431.15805	-588.59442	1492.22803	-210.49966	-671.21307	1398.22534	-328.86597	-445.15503	1353.76526	-320.92715	-810.60547	1215.10681	-222.01434	-389.38046	1202.98657	-166.57799	-592.94098	1125.02869	-297.11554	-609.19873	1297.03271	-95.41167	-890.05963	939.13940	-158.00081	-341.42267	962.58978	-61.94862	-990.25928	761.93250	-218.57535	-275.31821	699.75726	-114.16313	-743.40625	824.98523	-260.31580	-470.87137	803.27240	-205.62294	-668.74493	911.64099	28.67678	-790.70599	434.63419	-258.14749	-417.27994	400.07303	-94.35085	-843.62128	88.25836	-205.21043	-332.85281	130.89268	117.53426	
782	7.810	-530.59039	1290.05591	-437.88135	-594.76294	1493.15393	-214.98228	-677.86072	1399.56140	-333.31506	-452.04654	1356.19788	-327.55740	-816.60541	1217.23755	-226.58949	-394.83224	1203.60657	-173.02100	-598.69806	1126.89417	-303.48129	-614.49976	1297.89563	-100.64774	-896.07385	941.80902	-159.66029	-346.32886	964.32593	-68.99022	-999.33972	765.14923	-217.75891	-281.89969	701.91058	-119.16303	-750.10248	827.07916	-267.06958	-477.99194	804.15442	-210.80481	-674.24664	912.94739	21.10408	-795.47009	434.12906	-261.72391	-422.26596	401.58093	-102.30173	-844.65155	85.82050	-202.98535	-335.52621	133.77599	108.18584	
783	7.820	-537.12244	1292.70605	-444.27820	-601.84784	1494.78210	-220.36989	-684.36847	1401.04395	-338.74606	-458.36899	1359.16223	-333.89142	-822.86658	1219.42798	-230.92386	-399.93790	1204.43213	-178.58319	-605.35748	1129.04834	-310.22321	-618.42761	1299.13013	-107.04496	-901.40991	943.99731	-160.73128	-351.63260	965.79333	-76.23685	-1008.48962	769.26880	-217.08711	-289.45804	703.48810	-124.80043	-756.63263	828.04468	-274.09448	-484.78198	806.14410	-218.33624	-678.95093	914.52759	15.28972	-799.03119	431.95782	-263.97879	-426.68964	403.29828	-110.64335	-845.31415	83.60471	-201.33469	-339.99771	135.97461	99.69606	
